 <svg version="1.0" xmlns="http://www.w3.org/2000/svg" width="700.000000pt" height="681.000000pt" viewBox="0 0 700.000000 681.000000" preserveAspectRatio="xMidYMid meet">
<g transform="translate(0.000000,681.000000) scale(0.100000,-0.100000)" fill="#000000" stroke="none">
<path d="M0 3405 l0 -3405 3500 0 3500 0 0 3405 0 3405 -3500 0 -3500 0 0
-3405z m4603 2764 c216 -143 409 -278 430 -299 39 -41 45 -67 25 -101 -7 -11
-112 -113 -233 -226 -121 -114 -290 -272 -375 -353 -85 -80 -189 -177 -230
-215 -41 -37 -124 -116 -185 -174 -60 -59 -135 -129 -165 -156 -30 -27 -128
-119 -218 -205 -90 -85 -170 -159 -178 -163 -16 -9 -30 3 -234 199 -47 45
-116 110 -155 145 -38 35 -115 107 -170 159 -55 53 -131 125 -170 161 -194
182 -587 551 -811 764 -83 78 -92 108 -51 157 12 15 204 149 427 297 l405 270
748 0 748 1 392 -261z m-3967 -2836 c31 -65 69 -145 84 -178 15 -33 51 -109
79 -169 28 -59 51 -114 51 -122 0 -10 -12 -14 -39 -14 -35 0 -41 4 -64 43
l-25 43 -99 -3 c-170 -5 -196 -10 -241 -49 -30 -25 -50 -34 -76 -34 -20 0 -36
5 -36 10 0 9 57 129 205 433 40 81 42 90 30 114 -18 35 -12 43 36 43 l39 0 56
-117z m4238 91 c3 -9 6 -104 6 -211 0 -195 0 -196 26 -230 36 -48 73 -63 150
-63 78 0 130 24 160 73 16 28 19 60 24 237 l5 205 35 0 35 0 3 -205 c2 -131
-1 -219 -8 -243 -15 -53 -85 -120 -145 -140 -60 -21 -117 -21 -191 -2 -89 23
-132 58 -165 133 -17 38 -19 70 -19 246 0 112 3 206 7 209 13 14 71 7 77 -9z
m-3099 -167 c22 -7 49 -17 60 -24 20 -12 20 -12 -2 -40 -11 -15 -27 -26 -35
-24 -75 22 -90 24 -134 15 -49 -9 -71 -30 -61 -58 5 -12 20 -16 72 -16 77 0
154 -22 190 -56 36 -33 36 -110 0 -153 -69 -81 -237 -90 -322 -16 -31 28 -36
37 -27 51 22 36 38 38 82 9 72 -48 194 -35 208 22 11 40 -11 53 -91 53 -115 0
-173 29 -195 96 -9 26 -8 39 3 61 19 35 54 69 87 82 35 14 118 13 165 -2z
m547 1 c110 -26 186 -144 158 -249 -23 -86 -89 -144 -190 -168 -47 -11 -63
-11 -106 2 -71 21 -108 42 -134 74 -56 72 -64 150 -24 232 50 100 158 140 296
109z m-1027 -12 c19 -8 41 -28 49 -45 18 -34 21 -102 5 -118 -7 -7 -3 -21 15
-48 30 -44 32 -59 11 -109 -28 -67 -58 -77 -230 -74 l-150 3 -3 194 c-2 149 1
196 10 203 23 14 255 9 293 -6z m1424 1 c6 -8 12 -75 13 -167 l3 -155 100 0
100 0 3 -38 3 -38 -148 3 -148 3 -3 190 c-1 104 0 195 2 202 7 17 60 17 75 0z
m409 1 c8 -8 12 -55 12 -145 0 -129 1 -135 25 -158 21 -22 33 -25 90 -25 57 0
69 3 90 25 24 23 25 29 25 158 0 140 5 157 45 157 39 0 45 -18 45 -140 0 -135
-16 -204 -57 -242 -89 -82 -279 -55 -327 47 -12 25 -16 66 -16 178 0 143 0
146 23 150 12 2 24 5 28 6 3 0 10 -4 17 -11z m820 3 c8 -5 12 -21 10 -37 -3
-28 -5 -29 -73 -34 l-70 -5 -5 -160 -5 -160 -37 -3 -36 -3 -7 96 c-4 52 -5
122 -3 155 3 37 0 64 -7 70 -6 5 -38 10 -70 12 -58 3 -60 4 -63 32 -2 16 2 32
10 37 7 5 87 9 178 9 91 0 171 -4 178 -9z m460 -33 l3 -37 -118 -3 -118 -3 0
-45 0 -45 40 5 c22 2 63 4 90 5 l50 0 3 -37 3 -38 -58 -1 c-32 0 -74 -6 -93
-13 -31 -11 -35 -17 -35 -47 l0 -34 115 3 c63 2 121 -1 128 -6 8 -5 12 -22 10
-38 l-3 -29 -165 0 -165 0 -3 189 c-2 132 1 193 9 202 9 12 42 14 158 12 l146
-3 3 -37z m1147 28 c11 -7 67 -70 125 -139 57 -69 108 -123 112 -121 4 3 8 63
8 134 0 127 0 128 24 134 56 14 57 11 54 -203 l-3 -196 -37 -3 c-43 -4 -38 -8
-167 146 -52 61 -97 110 -100 107 -2 -3 -5 -60 -5 -128 l-1 -122 -35 0 -35 0
-2 165 c-2 98 -8 174 -14 187 -7 12 -9 29 -6 37 8 20 56 21 82 2z m595 -198
l0 -199 -32 3 -33 3 -3 197 c-2 181 -1 197 15 200 10 2 26 2 36 0 15 -4 17
-22 17 -204z m515 172 l0 -35 -75 -5 -75 -5 4 -102 c2 -56 0 -129 -4 -162 l-7
-61 -34 0 c-42 0 -43 4 -47 185 l-2 140 -67 3 -68 3 0 33 c0 18 3 36 7 40 4 3
88 5 187 4 l181 -3 0 -35z m-4747 -712 c17 -17 17 -254 0 -265 -7 -4 -161 -10
-343 -13 l-330 -5 -2 -825 c-3 -762 -4 -826 -20 -837 -24 -19 -237 -18 -252 0
-8 10 -12 249 -13 838 l-3 824 -335 5 c-184 3 -341 9 -347 13 -18 11 -18 248
-1 265 17 17 1629 17 1646 0z m2727 -563 c50 -8 123 -28 164 -44 94 -39 191
-93 191 -106 0 -19 -37 -70 -101 -139 l-64 -69 -55 31 c-30 16 -93 39 -140 51
-105 25 -272 38 -303 24 -12 -6 -48 -23 -79 -38 -91 -42 -123 -97 -94 -159 26
-55 83 -73 256 -80 162 -7 310 -21 385 -38 66 -14 176 -72 223 -117 98 -95
123 -274 62 -435 -31 -81 -133 -185 -221 -225 -146 -65 -246 -85 -419 -85
-119 1 -158 5 -218 23 -142 43 -268 112 -354 194 -63 61 -61 68 33 163 65 66
88 83 104 78 11 -3 49 -34 85 -69 73 -71 80 -75 169 -104 52 -17 89 -21 191
-21 131 0 157 5 250 47 92 41 140 99 140 168 0 51 -26 84 -90 113 -50 23 -72
26 -265 34 -291 11 -410 42 -510 129 -103 90 -141 250 -93 389 45 129 202 247
378 284 134 28 198 28 375 1z m-1253 -43 c17 -17 24 -202 9 -231 -12 -21 -16
-21 -395 -21 -297 0 -386 -3 -394 -13 -15 -17 -18 -285 -4 -299 8 -8 38 -2
109 21 97 30 103 31 294 31 138 0 198 -3 207 -12 8 -8 12 -49 12 -117 0 -147
8 -141 -199 -141 -91 0 -196 -5 -233 -10 -88 -13 -175 -46 -189 -72 -14 -25
-16 -185 -3 -198 5 -5 195 -10 422 -12 354 -3 414 -5 422 -18 5 -8 10 -62 10
-119 0 -83 -3 -108 -17 -123 -15 -17 -45 -18 -548 -18 -409 0 -535 3 -548 13
-16 11 -17 60 -15 672 l3 659 25 13 c36 19 1013 14 1032 -5z m3248 9 c25 -7
25 -7 25 -131 l0 -125 -245 -3 c-134 -1 -248 -6 -253 -11 -6 -6 -9 -218 -9
-493 0 -266 -3 -508 -7 -538 l-6 -55 -115 -3 c-108 -3 -116 -1 -133 19 -16 20
-18 57 -17 540 1 285 -1 523 -5 529 -4 6 -91 10 -234 10 -163 0 -230 3 -239
12 -13 13 -17 215 -4 234 4 7 16 14 27 17 31 7 1187 6 1215 -2z"></path>
<path d="M3160 6258 c-19 -6 -70 -8 -112 -4 -47 3 -78 2 -78 -4 0 -7 53 -84
75 -108 1 -2 23 11 48 28 25 17 61 37 80 45 37 15 61 38 50 48 -8 9 -19 8 -63
-5z"></path>
<path d="M3712 6254 c1 -10 30 -33 63 -51 115 -63 101 -62 145 -12 44 50 48
77 10 69 -42 -7 -153 -5 -188 3 -30 8 -33 7 -30 -9z"></path>
<path d="M2739 6227 c-30 -18 -107 -68 -171 -111 l-118 -78 0 -69 c0 -50 4
-71 14 -75 7 -3 40 7 72 22 32 14 68 30 79 34 11 4 36 15 56 24 122 53 254
106 265 106 25 0 14 40 -27 100 -63 92 -85 98 -170 47z"></path>
<path d="M3279 6177 c-63 -39 -123 -76 -133 -82 -10 -5 -17 -14 -17 -20 0 -9
70 -56 166 -109 22 -13 66 -39 97 -59 31 -21 64 -37 72 -37 9 0 46 20 83 43
38 24 73 46 78 48 6 2 47 26 93 53 81 48 98 70 65 83 -10 4 -70 40 -134 80
-115 72 -117 73 -185 73 -68 0 -70 -1 -185 -73z"></path>
<path d="M4020 6175 c-52 -77 -59 -95 -37 -95 6 0 115 -43 242 -95 126 -53
235 -93 242 -90 17 6 17 116 1 137 -7 9 -82 62 -166 117 -128 85 -158 101
-192 101 -38 0 -41 -3 -90 -75z"></path>
<path d="M3043 5998 c-21 -27 -76 -139 -71 -144 9 -8 318 -8 320 0 2 5 -17 19
-42 33 -25 14 -78 47 -118 74 -40 27 -74 49 -76 49 -2 0 -8 -6 -13 -12z"></path>
<path d="M3795 5960 c-38 -26 -90 -59 -115 -73 -25 -14 -44 -28 -42 -33 2 -8
311 -8 319 0 6 5 -49 120 -68 142 -15 19 -14 19 -94 -36z"></path>
<path d="M4005 5980 c-3 -5 6 -27 20 -49 14 -23 25 -45 25 -50 0 -18 19 -22
103 -26 45 -1 94 -6 110 -10 20 -5 27 -4 27 7 0 17 -20 28 -104 58 -80 28
-144 58 -151 70 -8 13 -22 13 -30 0z"></path>
<path d="M2890 5970 c-8 -4 -42 -20 -75 -35 -33 -14 -68 -30 -77 -36 -10 -5
-24 -9 -31 -9 -23 0 -67 -25 -67 -37 0 -10 25 -11 108 -7 59 4 110 9 113 13
11 11 59 101 59 111 0 12 -10 12 -30 0z"></path>
<path d="M2300 5934 c-19 -19 -47 -43 -62 -52 -47 -28 -35 -39 38 -37 36 1 70
7 75 12 13 13 7 105 -6 110 -6 2 -26 -13 -45 -33z"></path>
<path d="M4567 5963 c-2 -5 -2 -31 1 -59 l4 -52 66 -4 c37 -3 71 -2 75 2 4 4
-24 32 -63 63 -74 60 -77 61 -83 50z"></path>
<path d="M2143 5757 c-3 -5 23 -35 58 -66 35 -31 160 -148 278 -261 117 -113
217 -206 222 -208 21 -8 5 25 -50 102 -32 45 -60 87 -62 92 -6 16 -187 297
-206 321 -16 19 -30 22 -126 25 -60 2 -111 0 -114 -5z"></path>
<path d="M2505 5760 c-3 -5 109 -131 350 -390 83 -89 177 -191 209 -228 32
-37 63 -68 67 -70 15 -6 10 21 -15 73 -38 79 -58 126 -156 365 -51 124 -97
230 -103 237 -12 11 -345 24 -352 13z"></path>
<path d="M4075 5750 c-7 -8 -30 -55 -50 -105 -38 -94 -50 -120 -83 -195 -11
-25 -43 -103 -72 -175 -29 -71 -59 -137 -65 -145 -7 -8 -16 -26 -20 -38 -11
-38 17 -24 61 30 47 57 197 221 308 338 151 157 279 300 270 301 -5 0 -82 1
-172 2 -134 2 -166 -1 -177 -13z"></path>
<path d="M4659 5763 c-76 -3 -100 -7 -111 -21 -8 -9 -65 -98 -128 -197 -62
-99 -133 -209 -157 -243 -25 -36 -41 -68 -37 -72 5 -5 63 43 129 107 244 237
331 319 384 365 48 41 61 72 28 66 -7 -1 -55 -4 -108 -5z"></path>
<path d="M2960 5750 c0 -9 53 -142 85 -215 8 -16 21 -48 30 -70 10 -22 53
-125 96 -229 43 -105 79 -198 79 -207 0 -10 4 -20 9 -23 16 -10 29 18 36 79 3
33 10 80 15 105 11 52 36 196 52 290 6 36 19 109 29 163 11 55 16 103 13 108
-7 13 -444 12 -444 -1z"></path>
<path d="M3527 5753 c-4 -7 7 -83 33 -228 6 -33 15 -87 20 -120 5 -33 17 -98
25 -145 9 -47 20 -116 26 -155 5 -38 12 -77 15 -88 8 -25 28 -16 32 14 2 13 9
38 17 54 7 17 52 125 100 240 48 116 98 234 111 263 13 29 24 55 24 58 0 3 9
25 20 50 12 24 18 49 15 54 -7 12 -432 14 -438 3z"></path>
<path d="M3451 5502 c-6 -11 -11 -44 -11 -73 0 -28 -4 -68 -9 -88 -9 -33 -27
-132 -52 -286 -5 -33 -14 -83 -20 -112 -17 -88 -13 -127 26 -229 20 -55 41
-107 46 -116 5 -10 9 -29 9 -42 0 -14 5 -28 10 -31 14 -9 40 13 40 33 0 9 21
70 46 135 50 128 52 154 25 302 -5 28 -14 77 -19 110 -6 33 -18 101 -27 150
-9 50 -21 126 -25 169 -10 86 -22 110 -39 78z"></path>
<path d="M2730 5364 c0 -3 30 -50 68 -105 37 -55 72 -107 77 -116 77 -126 126
-196 164 -232 25 -24 94 -90 153 -148 60 -57 112 -102 117 -99 5 4 -2 27 -15
54 -13 26 -24 52 -24 57 0 14 -73 99 -240 280 -74 81 -157 172 -184 203 -86
102 -96 112 -106 112 -6 0 -10 -3 -10 -6z"></path>
<path d="M4113 5288 c-39 -46 -153 -171 -253 -278 -100 -107 -188 -208 -195
-225 -7 -16 -23 -52 -35 -79 -12 -26 -18 -51 -15 -54 3 -3 47 35 98 84 51 50
120 117 154 149 41 38 93 105 150 194 48 75 109 167 136 205 71 100 45 103
-40 4z"></path>
<path d="M544 3244 c-10 -30 -34 -83 -75 -166 -37 -75 -38 -106 -2 -76 11 9
49 14 115 15 55 0 102 4 105 7 4 3 0 14 -9 23 -8 10 -33 57 -57 105 -47 97
-67 121 -77 92z"></path>
<path d="M2129 3141 c-33 -32 -39 -45 -39 -79 0 -59 14 -87 57 -116 73 -50
194 -27 236 45 28 51 22 99 -19 147 l-36 42 -80 0 c-80 0 -81 0 -119 -39z"></path>
<path d="M1064 3166 c-3 -8 -4 -27 -2 -43 3 -32 3 -31 138 -16 62 7 75 11 78
27 7 34 -25 46 -120 46 -67 0 -90 -3 -94 -14z"></path>
<path d="M1090 3007 c-19 -10 -25 -20 -25 -47 l0 -35 96 2 c53 0 106 6 118 12
23 13 28 50 9 69 -16 16 -166 15 -198 -1z"></path>
</g>
</svg>